<svg xmlns="http://www.w3.org/2000/svg" width="48.442" height="40.373" viewBox="0 0 48.442 40.373">
  <g id="home-icon-send" transform="translate(0 -42.636)" opacity="0.8">
    <g id="Group_151" data-name="Group 151" transform="translate(0 42.636)">
      <path id="Path_266" data-name="Path 266" d="M47.86,43.007a1.6,1.6,0,0,0-1.619-.255L5.345,59.258a.808.808,0,0,0,.606,1.5L45.019,44.992,25.639,67.849a.808.808,0,1,0,1.232,1.044l19.673-23.2-2.629,13.2-2.649,17.7a.808.808,0,0,1-.4.587.763.763,0,0,1-.681.032L29.17,72.874l-5.284-2.213a.808.808,0,0,0-1.057.432.775.775,0,0,0-.034.17h-.019L20.152,81.394l-3.765-13.15L36.01,53.629a.807.807,0,1,0-.964-1.292L15.322,67.021,1.105,61.266a.808.808,0,0,0-.606,1.5l14.293,5.783L18.6,81.852a1.6,1.6,0,0,0,1.544,1.157h.019a1.587,1.587,0,0,0,1.05-.422.713.713,0,0,0,.081-.056L29.1,74.549,39.567,78.7a2.353,2.353,0,0,0,2.076-.116A2.415,2.415,0,0,0,42.86,76.83L45.5,59.165,48.409,44.58A1.624,1.624,0,0,0,47.86,43.007ZM22.415,79.082l1.7-6.571,2.67,1.121.688.273Z" transform="translate(0 -42.636)" fill="#fff"/>
    </g>
  </g>
</svg>
