<svg xmlns="http://www.w3.org/2000/svg" width="40.395" height="40.396" viewBox="0 0 40.395 40.396">
  <g id="home-icon-clock" opacity="0.8">
    <path id="Path_267" data-name="Path 267" d="M20.2,0A20.2,20.2,0,1,0,40.4,20.2,20.221,20.221,0,0,0,20.2,0Zm0,39.049A18.851,18.851,0,1,1,39.049,20.2,18.873,18.873,0,0,1,20.2,39.049Z" fill="#fff"/>
    <path id="Path_268" data-name="Path 268" d="M26.752,22.38V15.552a.673.673,0,1,0-1.347,0V22.38A2.689,2.689,0,0,0,23.482,24.3H18.673a.673.673,0,1,0,0,1.347h4.808a2.687,2.687,0,1,0,3.271-3.271Zm-.673,3.944a1.347,1.347,0,1,1,1.347-1.347A1.348,1.348,0,0,1,26.079,26.324Z" transform="translate(-5.881 -4.862)" fill="#fff"/>
    <path id="Path_269" data-name="Path 269" d="M29.673,8.9a.673.673,0,0,0,.673-.673V7.552a.673.673,0,1,0-1.347,0v.673A.673.673,0,0,0,29.673,8.9Z" transform="translate(-9.476 -2.248)" fill="#fff"/>
    <path id="Path_270" data-name="Path 270" d="M29.673,49.879a.673.673,0,0,0-.673.673v.673a.673.673,0,1,0,1.347,0v-.673A.673.673,0,0,0,29.673,49.879Z" transform="translate(-9.476 -16.298)" fill="#fff"/>
    <path id="Path_271" data-name="Path 271" d="M51.347,28.879h-.673a.673.673,0,1,0,0,1.347h.673a.673.673,0,0,0,0-1.347Z" transform="translate(-16.337 -9.436)" fill="#fff"/>
    <path id="Path_272" data-name="Path 272" d="M8.347,28.879H7.673a.673.673,0,0,0,0,1.347h.673a.673.673,0,0,0,0-1.347Z" transform="translate(-2.287 -9.436)" fill="#fff"/>
    <path id="Path_273" data-name="Path 273" d="M44.522,13.519,44.046,14a.673.673,0,1,0,.952.952l.476-.476a.673.673,0,1,0-.952-.952Z" transform="translate(-14.327 -4.353)" fill="#fff"/>
    <path id="Path_274" data-name="Path 274" d="M14.117,43.925l-.476.476a.673.673,0,1,0,.952.952l.476-.476a.673.673,0,0,0-.952-.952Z" transform="translate(-4.393 -14.288)" fill="#fff"/>
    <path id="Path_275" data-name="Path 275" d="M45,43.925a.673.673,0,1,0-.952.952l.476.476a.673.673,0,1,0,.952-.952Z" transform="translate(-14.327 -14.288)" fill="#fff"/>
    <path id="Path_276" data-name="Path 276" d="M14.593,13.519a.673.673,0,1,0-.952.952l.476.476A.673.673,0,0,0,15.069,14Z" transform="translate(-4.393 -4.353)" fill="#fff"/>
  </g>
</svg>
