<svg xmlns="http://www.w3.org/2000/svg" width="41.714" height="40.193" viewBox="0 0 41.714 40.193">
  <g id="home-icon-location" transform="translate(0 -1.002)" opacity="0.8">
    <path id="Path_253" data-name="Path 253" d="M39.19,23.013H30.926a.758.758,0,1,0,0,1.516h6.9L40.026,45H1.72L4.3,24.529h6.913a.758.758,0,0,0,0-1.516H2.962L0,46.517H41.714Z" transform="translate(0 -5.322)" fill="#fff"/>
    <path id="Path_254" data-name="Path 254" d="M24.027,29.788c-.111.066-.23.124-.337.193-.167.108-.33.221-.49.337a.759.759,0,0,0,.9,1.223c.135-.1.272-.195.415-.287a8.334,8.334,0,0,1,.769-.441.753.753,0,0,0,.35-.962c.006-.006.014-.011.019-.017a33.968,33.968,0,0,0,7.907-15.966,15.582,15.582,0,0,0,.259-5.246C33.166,3.638,30.068,1,24.861,1s-8.3,2.636-8.957,7.621a15.6,15.6,0,0,0,.26,5.246A34.024,34.024,0,0,0,24.027,29.788ZM17.408,8.821c.556-4.24,2.994-6.3,7.454-6.3s6.9,2.062,7.453,6.3a14.113,14.113,0,0,1-.24,4.736,33.359,33.359,0,0,1-7.214,14.9,33.367,33.367,0,0,1-7.214-14.9A14.113,14.113,0,0,1,17.408,8.821Z" transform="translate(-3.818 0)" fill="#fff"/>
    <path id="Path_255" data-name="Path 255" d="M25.979,16.373a5.57,5.57,0,1,0-5.57-5.57A5.576,5.576,0,0,0,25.979,16.373Zm0-9.622A4.053,4.053,0,1,1,21.925,10.8,4.058,4.058,0,0,1,25.979,6.75Z" transform="translate(-4.935 -1.023)" fill="#fff"/>
    <path id="Path_256" data-name="Path 256" d="M31.237,37.085a.758.758,0,0,0,.317,1.483c.444-.094.926-.174,1.43-.237a.758.758,0,0,0-.187-1.5C32.249,36.894,31.723,36.981,31.237,37.085Z" transform="translate(-7.408 -8.661)" fill="#fff"/>
    <path id="Path_257" data-name="Path 257" d="M36.6,37.3a.758.758,0,0,0,.757.726h.033l1.517-.063a.758.758,0,0,0,.723-.792.777.777,0,0,0-.792-.723l-1.513.063A.757.757,0,0,0,36.6,37.3Z" transform="translate(-8.849 -8.571)" fill="#fff"/>
    <path id="Path_258" data-name="Path 258" d="M21.941,42.128c-.39.294-.792.577-1.2.839a.759.759,0,0,0,.826,1.272c.434-.282.867-.585,1.285-.9a.758.758,0,1,0-.914-1.211Z" transform="translate(-4.932 -9.907)" fill="#fff"/>
    <path id="Path_259" data-name="Path 259" d="M44.2,35.519a2.7,2.7,0,0,1-1.021.4.758.758,0,1,0,.307,1.485,4.17,4.17,0,0,0,1.589-.647l.1-.074a.758.758,0,1,0-.915-1.209Z" transform="translate(-10.295 -8.298)" fill="#fff"/>
    <path id="Path_260" data-name="Path 260" d="M8.337,43.1a.758.758,0,1,0-1.463-.4A5.071,5.071,0,0,0,6.7,43.766c0,.087-.006.175-.006.268,0,.149.008.3.022.445a.758.758,0,0,0,.754.681c.025,0,.051,0,.078,0a.76.76,0,0,0,.678-.832c-.011-.1-.014-.2-.015-.3,0-.063,0-.126.005-.188A3.532,3.532,0,0,1,8.337,43.1Z" transform="translate(-1.619 -9.947)" fill="#fff"/>
    <path id="Path_261" data-name="Path 261" d="M43.945,27.8a4.459,4.459,0,0,0-1.809.137.758.758,0,0,0,.205,1.488.74.74,0,0,0,.206-.029,2.959,2.959,0,0,1,1.194-.093.759.759,0,0,0,.2-1.5Z" transform="translate(-10.055 -6.47)" fill="#fff"/>
    <path id="Path_262" data-name="Path 262" d="M46.666,32.119a.758.758,0,0,0,.5.948.742.742,0,0,0,.224.034.757.757,0,0,0,.724-.535,3.231,3.231,0,0,0,.139-.73c0-.063.006-.127.006-.19a3.026,3.026,0,0,0-.193-1.055.758.758,0,0,0-1.422.527,1.52,1.52,0,0,1,.1.528l0,.089A1.71,1.71,0,0,1,46.666,32.119Z" transform="translate(-11.267 -7.035)" fill="#fff"/>
    <path id="Path_263" data-name="Path 263" d="M16.9,45.141c-.444.209-.9.4-1.345.575a.758.758,0,0,0,.274,1.466.75.75,0,0,0,.273-.051c.481-.186.967-.394,1.443-.616a.759.759,0,0,0-.644-1.374Z" transform="translate(-3.643 -10.655)" fill="#fff"/>
    <path id="Path_264" data-name="Path 264" d="M9.959,40.415a.758.758,0,0,0,.362-.092,1.854,1.854,0,0,1,.691-.219,1.23,1.23,0,0,1,.308,0,.758.758,0,0,0,.2-1.5,2.8,2.8,0,0,0-.676-.006,3.37,3.37,0,0,0-1.248.4.758.758,0,0,0,.364,1.424Z" transform="translate(-2.224 -9.086)" fill="#fff"/>
    <path id="Path_265" data-name="Path 265" d="M9.812,48.366a3.755,3.755,0,0,0,.5.094,4.844,4.844,0,0,0,.583.036,5.624,5.624,0,0,0,.713-.047.758.758,0,0,0-.19-1.5,3.715,3.715,0,0,1-.922.011,2.527,2.527,0,0,1-.3-.057.758.758,0,1,0-.381,1.467Z" transform="translate(-2.235 -11.092)" fill="#fff"/>
  </g>
</svg>
